<svg width="245" height="26" viewBox="0 0 245 26" fill="none" xmlns="http://www.w3.org/2000/svg">
<path d="M13.1101 6.00103C-1.40436 8.66095 -0.230006 17.9355 1.86706 21.6929C2.19177 19.6169 4.11548 16.6457 6.42137 16C14.9287 13.3401 19.2508 8.63662 20.252 6.00103C19.9002 8.37982 15.3528 13.2238 8.89113 16.5C2.42945 19.7762 2.53001 24.3555 1.86706 25.9909C4.78943 22.1633 8.4018 26.2264 12.0548 25.9909C24.6372 25.18 26.5178 6.50112 20.903 0C19.2795 3.01673 15.9512 5.35227 13.1101 6.00103Z" fill="#373737"/>
<path d="M31.941 18.6528V6.97708H39.1482V8.12032H33.1182V12.1582H38.1872V13.3014H33.1182V17.5095H39.1482V18.6528H31.941Z" fill="#373737"/>
<path d="M44.3023 18.8879C43.288 18.8879 42.4525 18.6663 41.7958 18.223C41.1445 17.7798 40.7441 17.1636 40.5946 16.3744L41.7958 16.1717C41.9239 16.669 42.2149 17.0663 42.6687 17.3636C43.1278 17.6555 43.6937 17.8014 44.3664 17.8014C45.023 17.8014 45.5409 17.6636 45.9199 17.3879C46.2989 17.1068 46.4885 16.7257 46.4885 16.2446C46.4885 15.9744 46.4271 15.7555 46.3043 15.5879C46.1868 15.4149 45.9439 15.2555 45.5756 15.1095C45.2072 14.9636 44.6573 14.7906 43.9259 14.5906C43.1411 14.3744 42.5272 14.1582 42.0841 13.9419C41.641 13.7257 41.326 13.4771 41.1391 13.196C40.9523 12.9095 40.8589 12.5609 40.8589 12.1501C40.8589 11.6528 40.9977 11.2176 41.2753 10.8446C41.5529 10.4663 41.9373 10.1744 42.4284 9.96897C42.9196 9.75816 43.4908 9.65276 44.1421 9.65276C44.7934 9.65276 45.3754 9.76086 45.8879 9.97708C46.4057 10.1879 46.8221 10.4852 47.1371 10.869C47.4521 11.2528 47.6389 11.6987 47.6977 12.2068L46.4965 12.4257C46.4164 11.9122 46.1628 11.5068 45.7357 11.2095C45.314 10.9068 44.7774 10.7501 44.1261 10.7392C43.5122 10.723 43.013 10.8419 42.6286 11.096C42.2442 11.3446 42.0521 11.6771 42.0521 12.0933C42.0521 12.3257 42.1215 12.5257 42.2603 12.6933C42.3991 12.8555 42.65 13.0095 43.013 13.1555C43.3814 13.3014 43.9046 13.4609 44.5826 13.6338C45.378 13.8392 46.0026 14.0555 46.4564 14.2825C46.9102 14.5095 47.2332 14.7771 47.4254 15.0852C47.6176 15.3933 47.7137 15.7744 47.7137 16.2284C47.7137 17.0555 47.4094 17.7068 46.8008 18.1825C46.1975 18.6528 45.3647 18.8879 44.3023 18.8879Z" fill="#373737"/>
<path d="M54.1984 18.6528C53.7126 18.7555 53.2321 18.796 52.7569 18.7744C52.2871 18.7528 51.8654 18.6501 51.4917 18.4663C51.1233 18.2825 50.843 17.996 50.6509 17.6068C50.496 17.2825 50.4106 16.9555 50.3946 16.6257C50.3839 16.2906 50.3786 15.9095 50.3786 15.4825V7.46357H51.5477V15.4338C51.5477 15.8014 51.5504 16.1095 51.5558 16.3582C51.5664 16.6014 51.6225 16.8176 51.7239 17.0068C51.9161 17.369 52.2204 17.5852 52.6368 17.6555C53.0586 17.7257 53.5791 17.7095 54.1984 17.6068V18.6528ZM48.5287 10.9176V9.896H54.1984V10.9176H48.5287Z" fill="#373737"/>
<path d="M59.2491 18.896C58.4056 18.896 57.6742 18.7068 57.055 18.3284C56.441 17.9501 55.9632 17.4176 55.6215 16.7311C55.2799 16.0446 55.109 15.2392 55.109 14.3149C55.109 13.3582 55.2772 12.5311 55.6135 11.8338C55.9499 11.1365 56.4223 10.5987 57.0309 10.2203C57.6449 9.84195 58.3683 9.65276 59.2011 9.65276C60.0553 9.65276 60.784 9.85276 61.3873 10.2528C61.9905 10.6474 62.447 11.2149 62.7566 11.9555C63.0663 12.696 63.2077 13.5798 63.1811 14.6068H61.9799V14.1852C61.9585 13.0501 61.7156 12.1933 61.2511 11.6149C60.792 11.0365 60.1193 10.7474 59.2331 10.7474C58.3042 10.7474 57.5915 11.0528 57.095 11.6636C56.6038 12.2744 56.3583 13.1446 56.3583 14.2744C56.3583 15.3771 56.6038 16.2338 57.095 16.8446C57.5915 17.4501 58.2935 17.7528 59.2011 17.7528C59.8204 17.7528 60.3596 17.6095 60.8187 17.323C61.2832 17.0311 61.6489 16.6122 61.9158 16.0663L63.0129 16.496C62.6712 17.2582 62.1667 17.8501 61.4994 18.2717C60.8374 18.6879 60.0873 18.896 59.2491 18.896ZM55.9419 14.6068V13.6095H62.5484V14.6068H55.9419Z" fill="#373737"/>
<path d="M69.6669 18.6528C69.1811 18.7555 68.7006 18.796 68.2254 18.7744C67.7556 18.7528 67.3339 18.6501 66.9602 18.4663C66.5918 18.2825 66.3115 17.996 66.1193 17.6068C65.9645 17.2825 65.8791 16.9555 65.8631 16.6257C65.8524 16.2906 65.8471 15.9095 65.8471 15.4825V7.46357H67.0162V15.4338C67.0162 15.8014 67.0189 16.1095 67.0242 16.3582C67.0349 16.6014 67.091 16.8176 67.1924 17.0068C67.3846 17.369 67.6889 17.5852 68.1053 17.6555C68.5271 17.7257 69.0476 17.7095 69.6669 17.6068V18.6528ZM63.9972 10.9176V9.896H69.6669V10.9176H63.9972Z" fill="#373737"/>
<path d="M71.531 8.23384V6.896H72.7081V8.23384H71.531ZM71.531 18.6528V9.896H72.7081V18.6528H71.531Z" fill="#373737"/>
<path d="M78.6965 18.896C77.8263 18.896 77.0895 18.6987 76.4863 18.3041C75.883 17.9095 75.4239 17.3663 75.1089 16.6744C74.7993 15.9771 74.6391 15.1771 74.6284 14.2744C74.6391 13.3555 74.8046 12.5501 75.1249 11.8582C75.4452 11.1609 75.907 10.6203 76.5103 10.2365C77.1136 9.84735 77.845 9.65276 78.7045 9.65276C79.58 9.65276 80.3408 9.86897 80.9867 10.3014C81.6381 10.7338 82.0838 11.3257 82.3241 12.0771L81.1709 12.4501C80.9681 11.9257 80.6451 11.5203 80.202 11.2338C79.7642 10.9419 79.2624 10.796 78.6965 10.796C78.0612 10.796 77.5353 10.9446 77.1189 11.2419C76.7025 11.5338 76.3928 11.9419 76.19 12.4663C75.9871 12.9906 75.883 13.5933 75.8777 14.2744C75.8883 15.323 76.1286 16.1663 76.5984 16.8041C77.0682 17.4365 77.7675 17.7528 78.6965 17.7528C79.2837 17.7528 79.7829 17.6176 80.194 17.3474C80.6104 17.0717 80.9254 16.6717 81.1389 16.1474L82.3241 16.5041C82.0038 17.2825 81.534 17.8771 80.9147 18.2879C80.2954 18.6933 79.556 18.896 78.6965 18.896Z" fill="#373737"/>
</svg>
